<svg xmlns="http://www.w3.org/2000/svg" width="72" height="20" viewBox="0 0 72 20">
    <path fill="#C32032" fill-rule="evenodd" d="M0 13.018h17.586l.048.116c.07.152.147.298.225.443.182.324.39.625.623.9l.266.298.15.154c.41.402.88.723 1.394.95l.344.139.144.048c.438.148.9.239 1.38.256.668.021 1.313-.137 1.91-.438l.24-.129.168-.099c.204-.125.395-.267.575-.425l.187-.175.165-.175c.108-.113.213-.231.314-.356l.148-.19 3.24 2.486C27.623 18.991 25.11 20 22.674 20c-4.363 0-7.785-2.319-9.057-6.153l-.086-.27H0v-.559zm36.318-6.351c4.307 0 5.529 2.206 5.577 6.23l.002 6.638h-3.47v-1.576h-.05c-.828 1.343-2.336 1.885-3.868 1.885-2.287 0-4.348-1.344-4.348-3.876 0-4.34 5.126-4.418 8.267-4.418 0-1.37-1.106-2.247-2.413-2.247-1.23 0-2.26.568-3.065 1.497l-2.01-2.118c1.383-1.343 3.392-2.015 5.378-2.015zm29.848-.01l.253.012c.365.037 5.923.723 5.564 7.345h-8.596c.038 1.509 1.38 2.884 2.839 2.884 1.23 0 1.87-.366 2.637-1.407l2.624 1.673c-1.11 1.729-3.127 2.68-5.087 2.68-3.768 0-6.783-2.585-6.783-6.59 0-3.92 2.895-6.68 6.549-6.596zm-14.828.01c.427 0 .906.025 1.257.128v3.54c-.527-.154-1.056-.257-1.609-.257-2.864 0-3.216 1.704-3.216 4.21v5.247h-3.768V6.976h3.768v2.017h.05c.804-1.526 1.86-2.326 3.518-2.326zM58.046 0v19.535h-3.768V0h3.768zM13.178 17.227v.56H4.554v-.56h8.624zm25.25-2.37v-.828h-.93c-1.155 0-3.72.104-3.72 1.81 0 .931.956 1.37 1.785 1.37 1.482 0 2.865-.801 2.865-2.352zm-25.25.273v.56H4.554v-.56h8.624zm52.871-5.673c-1.659 0-2.562 1.016-2.662 2.231h5.137c.027-1.292-1.118-2.231-2.475-2.231zm-48.98 1.462l.028.283.04.278H0v-.56h17.068zm.133-1.988l-.055.278-.043.282H0v-.56h17.202zM22.675.775c1.905 0 4.297.644 5.819 2.455l.185.232-2.988 2.51c-.169-.191-.35-.369-.543-.53l-.251-.195c-.097-.07-.195-.135-.297-.198l-.124-.07c-.62-.347-1.335-.546-2.129-.546-.767 0-1.503.192-2.17.528l-.161.082-.18.102c-.447.26-.85.593-1.203.986l-.047.054c-.06.07-.119.14-.176.213-.113.14-.22.285-.32.436-.062.092-.122.183-.18.279l-.078.139-.076.141H0v-.56h13.65C14.946 3.056 18.348.776 22.675.776zm-9.497 3.956v.56H4.554v-.56h8.624zm0-2.097v.558H4.554v-.558h8.624z"/>
</svg>
