<svg xmlns="http://www.w3.org/2000/svg" width="189" height="32" viewBox="0 0 189 32">
    <g fill="#263B54">
        <path d="M6.256 17.192c1.936 0 3.216-.896 4.112-2.112l-1.136-.624c-.608.912-1.712 1.552-2.976 1.552-2.288 0-4.064-1.808-4.064-4.336 0-2.544 1.776-4.336 4.064-4.336 1.264 0 2.368.656 2.976 1.552l1.12-.624c-.848-1.2-2.16-2.112-4.096-2.112-3.024 0-5.44 2.24-5.44 5.52 0 3.28 2.416 5.52 5.44 5.52zm8.032 0c1.04 0 1.92-.368 2.56-1.072V17h1.2v-5.312c0-1.872-1.36-2.608-2.992-2.608-1.264 0-2.256.416-3.088 1.28l.56.832c.688-.736 1.44-1.072 2.368-1.072 1.12 0 1.952.592 1.952 1.632v1.392c-.624-.72-1.504-1.056-2.56-1.056-1.312 0-2.704.816-2.704 2.544 0 1.68 1.392 2.56 2.704 2.56zm.432-.864c-1.12 0-1.904-.704-1.904-1.68 0-.992.784-1.696 1.904-1.696.848 0 1.664.32 2.128.96v1.456c-.464.64-1.28.96-2.128.96zm6.928.672v-5.472c.352-.624 1.36-1.232 2.096-1.232.192 0 .336.016.48.048V9.112c-1.056 0-1.952.592-2.576 1.408V9.272h-1.2V17h1.2zm5.28 0V6.328h-1.2V17h1.2zm5.888.192c1.264 0 2.304-.416 3.072-1.184l-.576-.784c-.608.624-1.504.976-2.384.976-1.664 0-2.688-1.216-2.784-2.672H36.4v-.304c0-2.32-1.376-4.144-3.712-4.144-2.208 0-3.808 1.808-3.808 4.048 0 2.416 1.648 4.064 3.936 4.064zm2.4-4.544h-5.072c.064-1.184.88-2.576 2.528-2.576 1.76 0 2.528 1.424 2.544 2.576zM43.84 17V6.328h-1.328V17h1.328zm3.648 0V6.328h-1.2V17h1.2zm3.6 0V6.328h-1.2V17h1.2zm2.992-9.024c.448 0 .816-.368.816-.816 0-.448-.368-.8-.816-.8-.432 0-.8.352-.8.8 0 .448.368.816.8.816zM54.688 17V9.272h-1.2V17h1.2zm3.6 0v-5.648c.448-.624 1.344-1.2 2.288-1.2 1.04 0 1.728.432 1.728 1.792V17h1.2v-5.424c0-1.68-.848-2.496-2.464-2.496-1.152 0-2.208.672-2.752 1.312v-1.12h-1.2V17h1.2zm10.992.192c2.352 0 3.824-1.824 3.824-4.064S71.632 9.08 69.28 9.08s-3.824 1.808-3.824 4.048 1.472 4.064 3.824 4.064zm0-1.072c-1.648 0-2.576-1.408-2.576-2.992 0-1.568.928-2.976 2.576-2.976 1.648 0 2.56 1.408 2.56 2.976 0 1.584-.912 2.992-2.56 2.992zm6.368-8.144c.448 0 .816-.368.816-.816 0-.448-.368-.8-.816-.8-.432 0-.8.352-.8.8 0 .448.368.816.8.816zM76.256 17V9.272h-1.2V17h1.2zm4.848.192c2 0 3.04-1.04 3.04-2.336 0-1.712-1.552-2.096-2.896-2.4-1.008-.24-1.888-.48-1.888-1.232 0-.688.656-1.168 1.712-1.168.992 0 1.84.416 2.304.976l.56-.832c-.624-.624-1.552-1.12-2.864-1.12-1.84 0-2.88 1.024-2.88 2.224 0 1.6 1.488 1.952 2.8 2.256 1.04.256 1.984.528 1.984 1.376 0 .752-.64 1.28-1.824 1.28-1.056 0-2.032-.512-2.544-1.104l-.624.864c.784.832 1.856 1.216 3.12 1.216zM6.144 37.192c2.432 0 3.776-1.296 4.544-2.624l-1.952-.944c-.448.88-1.408 1.552-2.592 1.552-1.856 0-3.264-1.488-3.264-3.504s1.408-3.504 3.264-3.504c1.184 0 2.144.688 2.592 1.552l1.952-.96c-.752-1.328-2.112-2.608-4.544-2.608-3.12 0-5.6 2.24-5.6 5.52 0 3.28 2.48 5.52 5.6 5.52zm11.76 0c3.232 0 5.584-2.304 5.584-5.52 0-3.216-2.352-5.52-5.584-5.52-3.216 0-5.568 2.304-5.568 5.52 0 3.216 2.352 5.52 5.568 5.52zm0-2.016c-1.968 0-3.232-1.52-3.232-3.504 0-2 1.264-3.504 3.232-3.504 1.968 0 3.248 1.504 3.248 3.504 0 1.984-1.28 3.504-3.248 3.504zM32.672 37v-2H28.16v-8.672h-2.272V37h6.784zm9.168 0v-2h-4.512v-8.672h-2.272V37h6.784zm9.936 0v-1.968h-5.28v-2.48h5.168V30.6h-5.168v-2.32h5.28v-1.952h-7.552V37h7.552zm7.744.208c1.936 0 3.456-.8 4.544-2.016v-4.08h-5.088v1.952h2.848v1.296c-.464.416-1.328.816-2.304.816-1.936 0-3.344-1.488-3.344-3.504s1.408-3.504 3.344-3.504c1.12 0 2.032.592 2.528 1.344l1.888-1.024c-.816-1.264-2.208-2.336-4.416-2.336-3.12 0-5.68 2.144-5.68 5.52 0 3.36 2.56 5.536 5.68 5.536zM74.224 37v-1.968h-5.28v-2.48h5.168V30.6h-5.168v-2.32h5.28v-1.952h-7.552V37h7.552zm12.528.192c3.232 0 5.584-2.304 5.584-5.52 0-3.216-2.352-5.52-5.584-5.52-3.216 0-5.568 2.304-5.568 5.52 0 3.216 2.352 5.52 5.568 5.52zm0-2.016c-1.968 0-3.232-1.52-3.232-3.504 0-2 1.264-3.504 3.232-3.504 1.968 0 3.248 1.504 3.248 3.504 0 1.984-1.28 3.504-3.248 3.504zM97.008 37v-4.448h5.168V30.6h-5.168v-2.32h5.28v-1.952h-7.552V37h2.272zm14.832 0v-7.68l3.008 7.68h.992l3.008-7.68V37h2.288V26.328h-3.2l-2.592 6.656-2.592-6.656h-3.184V37h2.272zm19.76 0v-1.968h-5.28v-2.48h5.168V30.6h-5.168v-2.32h5.28v-1.952h-7.552V37h7.552zm6.784 0c3.344 0 5.664-2.112 5.664-5.328s-2.32-5.344-5.664-5.344h-4.208V37h4.208zm0-2h-1.936v-6.672h1.936c2.192 0 3.344 1.456 3.344 3.344 0 1.808-1.232 3.328-3.344 3.328zm10.352 2V26.328h-2.272V37h2.272zm8 .192c2.432 0 3.776-1.296 4.544-2.624l-1.952-.944c-.448.88-1.408 1.552-2.592 1.552-1.856 0-3.264-1.488-3.264-3.504s1.408-3.504 3.264-3.504c1.184 0 2.144.688 2.592 1.552l1.952-.96c-.752-1.328-2.112-2.608-4.544-2.608-3.12 0-5.6 2.24-5.6 5.52 0 3.28 2.48 5.52 5.6 5.52zm8.976-.192V26.328h-2.272V37h2.272zm5.184 0v-7.168L175.984 37h2.192V26.328h-2.272v6.912l-4.944-6.912h-2.336V37h2.272zm17.744 0v-1.968h-5.28v-2.48h5.168V30.6h-5.168v-2.32h5.28v-1.952h-7.552V37h7.552z" transform="translate(0 -6)"/>
    </g>
</svg>
