<svg xmlns="http://www.w3.org/2000/svg" width="108" height="20" viewBox="0 0 108 20">
    <g fill="none" fill-rule="evenodd">
        <path fill="#1A263D" d="M14 0L14 6 11 6 11 14 14 14 14 20 0 20 0 14 3 14 3 6 0 6 0 0z"/>
        <path fill="#E84A27" d="M13 1v4h-2c-.552 0-1 .448-1 1v8c0 .552.448 1 1 1h2v4H1v-4h2c.552 0 1-.448 1-1V6c0-.552-.448-1-1-1H1V1h12z"/>
        <path fill="#1A263D" fill-rule="nonzero" d="M22 16.768V3.232h2.947v13.536H22zm6.594 0V3.232h2.947v10.829h6.678v2.707h-9.625zm12.144 0V3.232h2.947v10.829h6.678v2.707h-9.625zm12.277 0V3.232h2.947v13.536h-2.947zm6.595 0V3.232h2.717l6.276 8.334V3.232h2.909v13.536h-2.507l-6.487-8.605v8.605H59.61zM81.53 17c-4.133 0-7.099-3.113-7.099-6.961V10c0-3.848 3.005-7 7.138-7s7.099 3.113 7.099 6.961V10c0 3.848-3.004 7-7.138 7zm.039-2.746c2.372 0 4.018-1.895 4.018-4.215V10c0-2.32-1.684-4.254-4.057-4.254-2.372 0-4.018 1.895-4.018 4.215V10c0 2.32 1.684 4.254 4.057 4.254zm10.153 2.514V3.232h2.947v13.536h-2.947zm11.36.193c-2.029 0-4.076-.715-5.684-2.165l1.741-2.108c1.206 1.005 2.469 1.643 4 1.643 1.205 0 1.932-.483 1.932-1.276v-.038c0-.755-.459-1.141-2.698-1.721-2.698-.697-4.439-1.45-4.439-4.139V7.12c0-2.456 1.952-4.08 4.688-4.08 1.952 0 3.617.618 4.975 1.72l-1.53 2.244c-1.187-.832-2.354-1.334-3.483-1.334-1.13 0-1.722.522-1.722 1.18v.038c0 .89.574 1.18 2.889 1.779 2.717.715 4.248 1.701 4.248 4.06v.04c0 2.687-2.028 4.195-4.918 4.195z"/>
    </g>
</svg>
